<?xml version="1.0" encoding="utf-8"?>
<!-- Generator: Adobe Illustrator 28.2.0, SVG Export Plug-In . SVG Version: 6.00 Build 0)  -->
<svg version="1.1" id="Layer_1" xmlns="http://www.w3.org/2000/svg" xmlns:xlink="http://www.w3.org/1999/xlink" x="0px" y="0px"
	 viewBox="0 0 500 77" style="enable-background:new 0 0 500 77;" xml:space="preserve">
<style type="text/css">
	.st0{fill:#E40000;}
</style>
<g>
	<polygon class="st0" points="0,25.3 8.7,34.2 68.2,34.2 68.2,25.3 	"/>
	<polygon class="st0" points="51.3,76.6 68.2,76.6 68.2,67.8 42.6,67.8 	"/>
	<polygon class="st0" points="30,55.4 68.2,55.4 68.2,46.5 21.3,46.5 	"/>
	<path class="st0" d="M412.9,31.2c-3.7-4.5-10.9-6.8-18.7-5.5c-6.9,1.1-11.3,5.7-14.3,10.2c1-11,0.3-23.8,0.5-35.6
		c-5.7,0-11.5,0-17.2,0c0,25.5,0,50.9,0,76.4c5.7,0,11.5,0,17.2,0c1.2-12.8-3.7-34,6.8-37.6c2-0.7,5.1-0.9,7.5,0.1
		c4.8,2,4.5,9.3,4.5,16.4c0,7.1,0,14.1,0,20.9c5.6,0.3,11.7,0,17.4,0.1c0.2-7.8,0.1-16.4,0.1-24.7C416.8,43.5,416.8,36,412.9,31.2z"
		/>
	<path class="st0" d="M120.5,34.6c-3.6-5.5-8.4-9.9-17.9-9.2c-8.9,0.6-14.9,5.7-17.9,12.3c-3.1,6.9-3.4,17.8-0.5,25.4
		c2.8,7.4,8.5,12.6,16.3,13.5c10,1.2,15.8-3.5,20.1-9.2c0,2.5,0,6.9,0,9.4c5.2,0,10.3,0,15.5,0c0-16,0-33.9,0-49.8
		c-5.2,0-10.4,0-15.6,0C120.5,29.4,120.5,32,120.5,34.6z M115.5,61.8c-3.1,1.5-8.3,1.5-11.1-0.1c-3-1.8-5.1-4.8-5.5-9
		c-0.7-7.7,2.7-13.3,9.6-14c3.9-0.4,7.4,0.7,9.5,2.8C123.7,47,121.7,58.9,115.5,61.8z"/>
	<path class="st0" d="M233.9,25.2c-9,0.5-15.3,4.7-19.3,10.4c-4.1,5.8-5.7,14.9-3.5,23.3c1.8,7.1,6.8,12.9,13.3,15.8
		c7.1,3.1,18.2,2.6,24-1.2c0-4.8,0-9.7,0-14.5c-2.4,2-4.9,3.9-9.2,4c-4.5,0.1-7.9-1.7-9.9-4.6c-2.6-3.6-2.7-9.5-1-13.4
		c1.6-3.8,5.2-6.7,10.4-6.6c3.6,0,6.2,1.6,8.2,3.1c0.5,0.4,1.1,1,1.5,0.9c0-4.6,0-9.3,0-13.9C244.7,26,240,24.8,233.9,25.2z"/>
	<path class="st0" d="M291.6,34.4c-3.7-5.6-8.4-9.9-18-9.3c-13.8,0.9-20.6,12-20.5,25.8c0,15.1,8.6,28.3,25.3,25.4
		c6.4-1.1,10.1-4.8,13.3-9.2c0,2.6,0,7,0,9.6c5.2,0,10.3,0,15.5,0c0-16,0-34,0-50c-5.2,0-10.4,0-15.6,0
		C291.6,29.3,291.6,31.9,291.6,34.4z M285.7,62.1c-6.4,2.4-12.9-0.8-14.9-5.7c-2.1-5.1-0.8-12.6,2.9-15.6c1.3-1.1,3.1-1.9,5.9-2.2
		c7.6-0.7,12.1,3.7,12.7,10.1C292.9,55.8,290.3,60.4,285.7,62.1z"/>
	<path class="st0" d="M339.3,44.4c-2.7-0.8-6.7-1.7-7-4.3c-0.3-2.4,2.4-3.5,4.6-3.7c5.8-0.4,10.4,1.8,13.7,3.8
		c0.4,0.3,0.9,0.7,1.5,0.6c1.2-3.7,2.3-7.5,3.4-11.4c-6.3-2.7-13.1-4.9-21.1-4.4c-7.7,0.5-13.8,3.8-16.3,8.9
		c-0.7,1.5-1.4,4.4-1.3,6.8c0.2,8.9,7.5,12.1,14.8,14c1.9,0.5,3.9,0.9,5.9,1.6c1.3,0.5,3.8,1.3,4.2,3.4c0.6,3.2-2.4,4.4-5,4.6
		c-7.2,0.6-13.1-2.4-17-5.2c-0.6-0.4-1-1.2-1.8-1.2c-1,4.4-2.2,8.5-3.4,12.7c6.8,4.2,16.5,6.8,26.4,5.6c9-1.1,16.4-6.6,16.4-16.2
		C357.2,49.4,348,46.9,339.3,44.4z"/>
	<path class="st0" d="M185.9,38.3c0-3.8,0-7.6,0-11.4c-5.5,0-11.1,0-16.6,0c0,16.6,0,33.2,0,49.8c5.8,0,11.7,0,17.5,0
		c0.8-11.8-2.4-26.3,4.1-32.5c3.1-2.9,9.8-4.4,15.5-2.3c0.6-5.3,1.2-10.6,1.6-15.9C195.7,24.1,189.2,30.7,185.9,38.3z"/>
	<g>
		<path class="st0" d="M152.3,1.3c-5.1,0.5-9,4.2-8.7,10c0.2,5.4,4.5,9.4,9.8,9.4c5.2,0,9.1-4,9.6-8.4
			C163.7,5.4,158.7,0.6,152.3,1.3z"/>
		<path class="st0" d="M144.5,27.3c0,16.5,0,33,0,49.5c5.9,0,11.7,0,17.6,0c0-16.6,0-33.2,0-49.8c-5.8,0-11.7,0-17.5,0
			C144.4,26.9,144.5,27.1,144.5,27.3z"/>
	</g>
	<polygon class="st0" points="500,25.3 491.3,34.2 431.8,34.2 431.8,25.3 	"/>
	<polygon class="st0" points="448.7,76.6 431.8,76.6 431.8,67.8 457.4,67.8 	"/>
	<polygon class="st0" points="470,55.4 431.8,55.4 431.8,46.5 478.7,46.5 	"/>
</g>
</svg>
